# xmcd
# 
# Track frame offsets:
#     150
#     29850
#     62550
#     92062
#     124349
#     164699
#     181386
#     194698
#     221585
#     248660
#     268272
#     291184
# 
# Disc length: 4324
# 
# Revision: 0
# Processed by: cddbd v1.5.2PL0 Copyright (c) Steve Scherf et al.
# Submitted via: fre:ac v1.0.27
# 
DISCID=c310e20c
DTITLE=J.J. Cale - One Way Ticket [CD2)
DYEAR=2017
DGENRE=Blues
TTITLE0=Cajun Moon
TTITLE1=Call Me the Breeze
TTITLE2=Lies
TTITLE3=Clyde
TTITLE4=After Midnight
TTITLE5=Call The Doctor
TTITLE6=Got My Mojo Workin'
TTITLE7=Magnolia
TTITLE8=Crazy Mama
TTITLE9=Sensitive Kind
TTITLE10=Bringing It Back
TTITLE11=Cocaine
EXTD=
EXTT0=
EXTT1=
EXTT2=
EXTT3=
EXTT4=
EXTT5=
EXTT6=
EXTT7=
EXTT8=
EXTT9=
EXTT10=
EXTT11=
PLAYORDER=
